<svg xmlns="http://www.w3.org/2000/svg" version="1.1" xmlns:xlink="http://www.w3.org/1999/xlink" width="24" height="24" x="0" y="0" viewBox="0 0 128 128" style="enable-background:new 0 0 512 512" xml:space="preserve" class=""><g><path d="M36.4 86.4c-.5 0-1-.2-1.4-.6l-12-12 12-12c.4-.4.9-.6 1.4-.6s1 .2 1.4.6.6.9.6 1.4-.2 1-.6 1.4l-9.2 9.2 9.2 9.2c.4.4.6.9.6 1.4s-.2 1-.6 1.4-.8.6-1.4.6z" fill="#000000" opacity="1" data-original="#000000" class=""></path><path d="M36.4 61.6c.4 0 .8.2 1.1.4.3.3.4.7.4 1.1s-.2.8-.4 1.1L28.6 73l-.7.7.7.7 8.9 8.9c.3.3.4.7.4 1.1s-.2.8-.4 1.1c-.3.3-.7.4-1.1.4s-.8-.2-1.1-.4L23.7 73.8l11.7-11.7c.3-.3.6-.5 1-.5m0-1c-.6 0-1.3.2-1.8.7L22.3 73.8l12.4 12.4c.5.5 1.1.7 1.8.7.6 0 1.3-.2 1.8-.7 1-1 1-2.6 0-3.5l-8.9-8.9 8.9-8.9c1-1 1-2.6 0-3.5-.6-.5-1.2-.8-1.9-.8zM41.4 90.3c-.2 0-.4 0-.6-.1-1.1-.3-1.6-1.5-1.3-2.5l9.3-29.1c.3-.8 1-1.4 1.9-1.4.2 0 .4 0 .6.1 1 .3 1.6 1.5 1.3 2.5l-9.3 29.1c-.3.8-1 1.4-1.9 1.4z" fill="#000000" opacity="1" data-original="#000000" class=""></path><path d="M50.7 57.7c.2 0 .3 0 .5.1.8.3 1.2 1.1 1 1.9l-9.3 29.1c-.2.6-.8 1-1.4 1-.2 0-.3 0-.5-.1-.8-.3-1.2-1.1-1-1.9l9.3-29.1c.2-.6.8-1 1.4-1m0-1c-1.1 0-2 .7-2.4 1.7L39 87.5c-.4 1.3.3 2.7 1.6 3.1.3.1.5.1.8.1 1.1 0 2-.7 2.4-1.7l9.3-29c.4-1.3-.3-2.7-1.6-3.1-.3-.1-.5-.2-.8-.2zM55.6 86.4c-.5 0-1-.2-1.4-.6s-.6-.9-.6-1.4.2-1 .6-1.4l9.2-9.2-9.2-9.2c-.4-.4-.6-.9-.6-1.4s.2-1 .6-1.4.9-.6 1.4-.6 1 .2 1.4.6l12 12-12 12c-.3.4-.8.6-1.4.6z" fill="#000000" opacity="1" data-original="#000000" class=""></path><path d="M55.6 61.6c.4 0 .8.2 1.1.4l11.7 11.7-11.7 11.7c-.3.3-.7.4-1.1.4s-.8-.2-1.1-.4c-.3-.3-.4-.7-.4-1.1s.2-.8.4-1.1l8.9-8.9.7-.7-.7-.6-8.9-8.9c-.3-.3-.4-.7-.4-1.1s.2-.8.4-1.1c.4-.1.7-.3 1.1-.3m0-1c-.6 0-1.3.2-1.8.7-1 1-1 2.6 0 3.5l8.9 8.9-8.9 8.9c-1 1-1 2.6 0 3.5.5.5 1.1.7 1.8.7s1.3-.2 1.8-.7l12.4-12.4-12.4-12.3c-.5-.5-1.1-.8-1.8-.8zM14.5 45.2c-1.1 0-2.1-.9-2.1-2.1s.9-2.1 2.1-2.1h99.1c1.1 0 2.1.9 2.1 2.1s-.9 2.1-2.1 2.1z" fill="#000000" opacity="1" data-original="#000000" class=""></path><path d="M113.6 41.5c.9 0 1.6.7 1.6 1.6s-.7 1.6-1.6 1.6H14.5c-.9 0-1.6-.7-1.6-1.6s.7-1.6 1.6-1.6zm0-1H14.5c-1.4 0-2.6 1.2-2.6 2.6s1.2 2.6 2.6 2.6h99.1c1.4 0 2.6-1.2 2.6-2.6s-1.2-2.6-2.6-2.6zM76.8 30.5h5.3v5.3h-5.3z" fill="#000000" opacity="1" data-original="#000000" class=""></path><path d="M81.6 31v4.3h-4.3V31zm1-1h-6.3v6.3h6.3zM88.5 30.5h5.3v5.3h-5.3z" fill="#000000" opacity="1" data-original="#000000" class=""></path><path d="M93.3 31v4.3H89V31zm1-1H88v6.3h6.3zM100.1 30.5h5.3v5.3h-5.3z" fill="#000000" opacity="1" data-original="#000000" class=""></path><path d="M104.9 31v4.3h-4.3V31zm1-1h-6.3v6.3h6.3z" fill="#000000" opacity="1" data-original="#000000" class=""></path><path d="M12 105.5v-83h104v83zm4.2-4.2h95.6V26.7H16.2z" fill="#000000" opacity="1" data-original="#000000" class=""></path><path d="M115.5 23v82h-103V23zm-99.8 78.8h96.6V26.2H15.7v74.7zM116.5 22h-105v84h104.9V22zm-99.8 78.8V27.2h94.6v73.7H16.7z" fill="#000000" opacity="1" data-original="#000000" class=""></path><path d="M87 89v-3.1l-.4-.1c-1.5-.3-2.9-.9-4.2-1.7l-.3-.2-2.2 2.1-3.4-3.4 2.2-2.2-.2-.3c-.8-1.3-1.4-2.7-1.7-4.2l-.1-.4h-3.1v-4.8h3.1l.1-.4c.3-1.5.9-2.9 1.7-4.2l.2-.3-2.2-2.2 3.4-3.4 2.2 2.2.3-.2c1.3-.8 2.7-1.4 4.2-1.7l.4-.1v-3.1h4.8v3.1l.4.1c1.5.3 2.9.9 4.2 1.7l.3.2 2.2-2.2 3.4 3.4-2.2 2.2.2.3c.8 1.3 1.4 2.7 1.7 4.2l.1.4h3.1v4.8h-3.1l-.1.4c-.3 1.5-.9 2.9-1.7 4.2l-.2.3 2.2 2.2L99 86l-2.2-2.2-.4.2c-1.3.8-2.7 1.4-4.2 1.7l-.4.1V89zm2.4-23.7c-4.3 0-7.8 3.5-7.8 7.8s3.5 7.8 7.8 7.8 7.8-3.5 7.8-7.8-3.5-7.8-7.8-7.8z" fill="#000000" opacity="1" data-original="#000000" class=""></path><path d="M91.3 57.7V60.8l.8.2c1.5.3 2.8.9 4.1 1.7l.7.4.6-.6 1.6-1.6 2.6 2.6-1.6 1.6-.6.6.4.7c.8 1.3 1.4 2.6 1.7 4.1l.2.8h3V75h-3l-.2.8c-.3 1.5-.9 2.8-1.7 4.1l-.4.7.6.6 1.6 1.6-2.7 2.5-1.6-1.6-.6-.6-.7.4c-1.3.8-2.6 1.4-4.1 1.7l-.8.2v3h-3.8v-3l-.8-.2c-1.5-.3-2.8-.9-4.1-1.7l-.5-.3-.6.6-1.6 1.6-2.7-2.7 1.6-1.6.6-.6-.4-.7c-.8-1.3-1.4-2.6-1.7-4.1l-.1-.7h-3v-3.8h3l.2-.8c.3-1.5.9-2.8 1.7-4.1l.4-.7-.6-.6-1.6-1.6 2.7-2.7 1.6 1.6.5.7.7-.4c1.3-.8 2.6-1.4 4.1-1.7l.8-.2v-3zm-1.9 23.7c4.6 0 8.3-3.7 8.3-8.3s-3.7-8.3-8.3-8.3-8.3 3.7-8.3 8.3 3.7 8.3 8.3 8.3m2.9-24.7h-5.8v3.2c-1.6.3-3.1 1-4.4 1.8l-2.3-2.3-4.1 4.1 2.3 2.3c-.9 1.3-1.5 2.8-1.8 4.4H73V76h3.2c.3 1.6 1 3.1 1.8 4.4l-2.3 2.3 4.1 4.1 2.3-2.3c1.3.9 2.8 1.5 4.4 1.8v3.2h5.8v-3.2c1.6-.3 3.1-1 4.4-1.8l2.3 2.3 4.1-4.1-2.3-2.3c.9-1.3 1.5-2.8 1.8-4.4h3.2v-5.8h-3.2c-.3-1.6-1-3.1-1.8-4.4l2.3-2.3-4.1-4-2.3 2.3c-1.3-.9-2.8-1.5-4.4-1.8zm-2.9 23.7c-4.1 0-7.3-3.3-7.3-7.3s3.3-7.3 7.3-7.3 7.3 3.3 7.3 7.3-3.2 7.3-7.3 7.3z" fill="#000000" opacity="1" data-original="#000000" class=""></path></g></svg>