<svg xmlns="http://www.w3.org/2000/svg" version="1.1" xmlns:xlink="http://www.w3.org/1999/xlink" width="24" height="24" x="0" y="0" viewBox="0 0 512 512" style="enable-background:new 0 0 512 512" xml:space="preserve" class=""><g><path d="m374.236 266.743 12.567-12.567.012-.012.012-.012 44.332-44.332.008-.007.007-.008 44.34-44.34.003-.003.003-.003 24.355-24.355C507.694 133.286 512 122.89 512 111.833s-4.307-21.453-12.125-29.27l-70.436-70.437C421.621 4.308 411.225.001 400.168.001c-11.058 0-21.453 4.306-29.271 12.125l-125.64 125.638-85.279-85.28a112.041 112.041 0 0 0-51.743-29.387L18.677.458A14.998 14.998 0 0 0 4.394 4.395 14.997 14.997 0 0 0 .458 18.677l22.64 89.558a112.036 112.036 0 0 0 29.386 51.743l85.28 85.279-125.64 125.639C4.306 378.715 0 389.11 0 400.167c0 11.058 4.306 21.452 12.125 29.27l70.437 70.437c7.819 7.82 18.214 12.126 29.272 12.126 11.057 0 21.452-4.306 29.27-12.125l68.677-68.676.032-.031.031-.032 56.899-56.899 115.5 115.501c14.818 14.818 34.282 22.228 53.747 22.228s38.929-7.409 53.747-22.228c29.637-29.636 29.637-77.858 0-107.494zM52.182 100.883 35.706 35.707l65.176 16.477a82.015 82.015 0 0 1 37.882 21.514l11.826 11.826-65.068 65.068-11.826-11.826a82.032 82.032 0 0 1-21.514-37.883zm54.553 70.921 65.068-65.068 52.241 52.241-65.068 65.068zM111.834 482a11.324 11.324 0 0 1-8.058-3.338l-70.438-70.437c-2.152-2.152-3.337-5.014-3.337-8.058s1.185-5.906 3.337-8.059l358.771-358.77c2.152-2.152 5.015-3.338 8.059-3.338s5.905 1.186 8.058 3.338l70.437 70.438c2.152 2.151 3.338 5.013 3.338 8.057s-1.186 5.906-3.338 8.059l-13.751 13.751-45.757-45.758c-5.856-5.858-15.354-5.858-21.213 0-5.858 5.857-5.858 15.355 0 21.213l45.757 45.758-23.138 23.138-23.582-23.581c-5.857-5.859-15.355-5.857-21.213 0-5.858 5.858-5.858 15.355 0 21.213l23.582 23.581-23.138 23.138-45.757-45.758c-5.858-5.858-15.355-5.858-21.213 0-5.858 5.857-5.858 15.355 0 21.213l45.757 45.757-23.138 23.138-23.582-23.581c-5.857-5.857-15.355-5.857-21.213 0s-5.858 15.355 0 21.213l23.581 23.581-22.737 22.737-45.757-45.757c-5.858-5.858-15.355-5.858-21.213 0-5.858 5.857-5.858 15.355 0 21.213l45.757 45.757-23.138 23.138-23.581-23.581c-5.857-5.857-15.355-5.857-21.213 0s-5.858 15.355 0 21.213l23.581 23.581-23.138 23.138-45.756-45.756c-5.857-5.857-15.355-5.857-21.213 0s-5.858 15.355 0 21.213l45.756 45.756-23.138 23.138-23.581-23.581c-5.857-5.857-15.355-5.857-21.213 0s-5.858 15.355 0 21.213l23.581 23.581-13.751 13.751a11.317 11.317 0 0 1-8.057 3.338zm186.62-139.474.062-.061.061-.062 43.872-43.872.017-.017.017-.017 10.541-10.541 63.562 63.562-65.068 65.068-63.562-63.562zm170.07 125.998c-17.939 17.939-47.129 17.939-65.068 0l-30.725-30.726 65.068-65.068 30.726 30.725c17.939 17.941 17.939 47.13-.001 65.069z" fill="#000000" opacity="1" data-original="#000000" class=""></path></g></svg>