<svg xmlns="http://www.w3.org/2000/svg" version="1.1" xmlns:xlink="http://www.w3.org/1999/xlink" width="24" height="24" x="0" y="0" viewBox="0 0 24 24" style="enable-background:new 0 0 512 512" xml:space="preserve" class=""><g><g data-name="Layer 2"><path d="M21 10.75h-6A1.752 1.752 0 0 1 13.25 9V3A1.752 1.752 0 0 1 15 1.25h6A1.752 1.752 0 0 1 22.75 3v6A1.752 1.752 0 0 1 21 10.75Zm-6-8a.25.25 0 0 0-.25.25v6a.25.25 0 0 0 .25.25h6a.25.25 0 0 0 .25-.25V3a.25.25 0 0 0-.25-.25ZM18 23.245a1.743 1.743 0 0 1-1.237-.512l-3.496-3.496a1.752 1.752 0 0 1 0-2.474l3.496-3.496a1.751 1.751 0 0 1 2.474 0l3.496 3.496a1.751 1.751 0 0 1 0 2.474l-3.496 3.496a1.743 1.743 0 0 1-1.237.512Zm0-8.991a.248.248 0 0 0-.177.073l-3.496 3.496a.25.25 0 0 0 0 .354l3.496 3.496a.25.25 0 0 0 .354 0l3.496-3.496a.25.25 0 0 0 0-.354l-3.496-3.496a.248.248 0 0 0-.177-.073ZM9 10.75H3A1.752 1.752 0 0 1 1.25 9V3A1.752 1.752 0 0 1 3 1.25h6A1.752 1.752 0 0 1 10.75 3v6A1.752 1.752 0 0 1 9 10.75Zm-6-8a.25.25 0 0 0-.25.25v6a.25.25 0 0 0 .25.25h6A.25.25 0 0 0 9.25 9V3A.25.25 0 0 0 9 2.75ZM9 22.75H3A1.752 1.752 0 0 1 1.25 21v-6A1.752 1.752 0 0 1 3 13.25h6A1.752 1.752 0 0 1 10.75 15v6A1.752 1.752 0 0 1 9 22.75Zm-6-8a.25.25 0 0 0-.25.25v6a.25.25 0 0 0 .25.25h6a.25.25 0 0 0 .25-.25v-6a.25.25 0 0 0-.25-.25Z" fill="#000000" opacity="1" data-original="#000000" class=""></path></g></g></svg>