<?xml version="1.0" encoding="iso-8859-1"?>
<!-- Generator: Adobe Illustrator 19.0.0, SVG Export Plug-In . SVG Version: 6.00 Build 0)  -->
<!-- License: CC0. Made by SVG Repo: https://www.svgrepo.com/svg/10901/pointer -->
<svg version="1.1" id="Layer_1" xmlns="http://www.w3.org/2000/svg" xmlns:xlink="http://www.w3.org/1999/xlink" x="0px" y="0px"
	 viewBox="0 0 512 512" style="enable-background:new 0 0 512 512;" xml:space="preserve">
<g>
	<g>
		<path d="M256,0C149.703,0,63.224,86.479,63.224,192.776c0,103.482,177.549,307.132,185.107,315.75
			c1.937,2.208,4.731,3.474,7.669,3.474s5.732-1.266,7.669-3.474c7.558-8.618,185.107-212.268,185.107-315.75
			C448.776,86.479,362.297,0,256,0z M255.999,486.132c-14.85-17.528-49.056-58.896-82.955-106.913
			c-58.501-82.86-89.422-147.332-89.422-186.442c0-95.049,77.328-172.378,172.378-172.378s172.378,77.328,172.377,172.378
			c0,39.086-30.886,103.509-89.32,186.301C305.146,427.122,270.869,468.577,255.999,486.132z"/>
	</g>
</g>
<g>
	<g>
		<path d="M256,52.016c-75.36,0-136.669,61.309-136.669,136.669S180.64,325.355,256,325.355s136.669-61.309,136.669-136.669
			S331.36,52.016,256,52.016z M256,304.956c-64.112,0-116.271-52.16-116.271-116.271S191.888,72.414,256,72.414
			s116.271,52.16,116.271,116.271S320.112,304.956,256,304.956z"/>
	</g>
</g>
</svg>
